<svg width="37" height="38" fill="none" xmlns="http://www.w3.org/2000/svg"><path d="M19.59 26.257l6.166-6.167a1.547 1.547 0 000-2.18l-6.166-6.167a1.541 1.541 0 00-2.18 2.18l3.535 3.535h-8.612a1.542 1.542 0 100 3.084h8.612l-3.535 3.535a1.541 1.541 0 002.18 2.18z" fill="#ED017F"/><path d="M33.917 19A15.417 15.417 0 1018.5 34.417 15.434 15.434 0 0033.917 19zM17.41 26.257a1.542 1.542 0 010-2.18l3.535-3.535h-8.612a1.541 1.541 0 110-3.084h8.612l-3.535-3.535a1.541 1.541 0 012.18-2.18l6.166 6.167a1.547 1.547 0 010 2.18l-6.166 6.167a1.542 1.542 0 01-2.18 0z" fill="#FCE0EF"/></svg>