<svg width="31" height="31" fill="none" xmlns="http://www.w3.org/2000/svg"><path d="M24.265 12.307h-.41L22.26 8.323a3.831 3.831 0 00-3.55-2.401h-7.663A3.831 3.831 0 007.279 9l-.664 3.307h-.23a3.831 3.831 0 00-3.83 3.832v3.83a1.277 1.277 0 001.276 1.278h1.277a3.831 3.831 0 107.663 0h5.108a3.831 3.831 0 107.663 0h1.277a1.277 1.277 0 001.277-1.277v-3.831a3.831 3.831 0 00-3.831-3.832zm-7.663-3.831h2.107a1.277 1.277 0 011.175.805l1.213 3.026h-4.495V8.476zm-6.82 1.022a1.277 1.277 0 011.278-1.022h2.988v3.831H9.22l.561-2.81zM8.94 22.524a1.277 1.277 0 110-2.555 1.277 1.277 0 010 2.555zm12.77 0a1.278 1.278 0 110-2.555 1.278 1.278 0 010 2.555zm3.832-3.831h-.996a3.831 3.831 0 00-5.67 0h-7.101a3.83 3.83 0 00-5.67 0h-.997v-2.555a1.277 1.277 0 011.277-1.277h17.88a1.277 1.277 0 011.277 1.277v2.555z" fill="#ED017F"/></svg>