<svg width="31" height="31" fill="none" xmlns="http://www.w3.org/2000/svg"><path d="M25.542 10.392l-7.663-6.718a3.831 3.831 0 00-5.108 0l-7.663 6.718a3.831 3.831 0 00-1.277 2.886V24.44a3.831 3.831 0 003.831 3.83h15.325a3.831 3.831 0 003.832-3.83V13.265a3.831 3.831 0 00-1.277-2.873zm-7.663 15.325h-5.108V19.33a1.277 1.277 0 011.277-1.277h2.554a1.277 1.277 0 011.277 1.277v6.386zm6.386-1.277a1.277 1.277 0 01-1.278 1.277h-2.554V19.33a3.831 3.831 0 00-3.831-3.831h-2.554a3.831 3.831 0 00-3.831 3.831v6.386H7.662a1.277 1.277 0 01-1.277-1.277V13.265a1.277 1.277 0 01.435-.958l7.662-6.704a1.277 1.277 0 011.686 0l7.662 6.704a1.278 1.278 0 01.435.958V24.44z" fill="#ED017F"/></svg>