<svg width="38" height="37" fill="none" xmlns="http://www.w3.org/2000/svg"><path d="M6.5 24.667a3.083 3.083 0 110-6.167 3.083 3.083 0 010 6.167zm0-15.417a3.083 3.083 0 110-6.167 3.083 3.083 0 010 6.167zm15.417 0a3.083 3.083 0 110-6.167 3.083 3.083 0 010 6.167zm0 15.417a3.083 3.083 0 110-6.167 3.083 3.083 0 010 6.167z" fill="#F467B2"/><path d="M15.75 33.917a3.083 3.083 0 110-6.167 3.083 3.083 0 010 6.167zm0-15.417a3.083 3.083 0 110-6.167 3.083 3.083 0 010 6.167zm15.417 0a3.083 3.083 0 110-6.167 3.083 3.083 0 010 6.167zm0 15.417a3.083 3.083 0 110-6.167 3.083 3.083 0 010 6.167z" fill="#ED017F"/><path d="M19.262 7.708a2.984 2.984 0 010-3.083H9.154a2.984 2.984 0 010 3.083h10.108zM6.5 18.5a3.046 3.046 0 011.542.43V8.82a2.984 2.984 0 01-3.084 0v10.11A3.046 3.046 0 016.5 18.5z" fill="#FCE0EF"/><path d="M31.167 27.75a3.046 3.046 0 011.541.43V18.07a2.984 2.984 0 01-3.083 0v10.11a3.046 3.046 0 011.542-.43zm-15.417 0a3.046 3.046 0 011.542.43V18.07a2.984 2.984 0 01-3.084 0v10.11a3.046 3.046 0 011.542-.43z" fill="#F467B2"/><path d="M19.262 20.042h-1.97v3.083h1.97a2.984 2.984 0 010-3.083zm-5.054 3.083v-3.083H9.154a2.984 2.984 0 010 3.083h5.054z" fill="#FCE0EF"/><path d="M28.512 29.292H18.404a2.984 2.984 0 010 3.083h10.108a2.984 2.984 0 010-3.083zm0-12.334a2.984 2.984 0 010-3.083H18.404a2.984 2.984 0 010 3.083h10.108z" fill="#F467B2"/><path d="M23.458 13.875V8.821a2.984 2.984 0 01-3.083 0v5.054h3.083zm-3.083 3.083v1.971a2.984 2.984 0 013.083 0v-1.97h-3.083z" fill="#FCE0EF"/></svg>