<svg width="38" height="38" fill="none" xmlns="http://www.w3.org/2000/svg"><path d="M28.01 23.042l-3.74 3.439a17.89 17.89 0 01-6.626 3.654l.992 4.63a1.542 1.542 0 002.265 1.02l6.02-3.396a4.679 4.679 0 002.12-5.094l-1.03-4.253zM11.869 14.03l3.22-3.823-4.016-.969a4.281 4.281 0 00-5.221 2.093L2.46 17.343a1.542 1.542 0 001.02 2.265l4.737 1.016a19.867 19.867 0 013.652-6.594zm14.596.063a2.313 2.313 0 100-4.626 2.313 2.313 0 000 4.626z" fill="#ED017F"/><path d="M35.51 3.679a1.544 1.544 0 00-1.1-1.1 17.342 17.342 0 00-17.603 5.586l-4.94 5.865A19.944 19.944 0 007.36 24.375a1.542 1.542 0 00.439 1.29l4.78 4.78a1.54 1.54 0 001.223.445 18.264 18.264 0 0010.468-4.409l5.648-5.193a17.273 17.273 0 005.592-17.61zm-9.046 10.413a2.313 2.313 0 110-4.626 2.313 2.313 0 010 4.626z" fill="#F899CC"/></svg>