<svg width="38" height="37" fill="none" xmlns="http://www.w3.org/2000/svg"><path d="M21.48 13.875a2.313 2.313 0 110-4.625 2.313 2.313 0 010 4.625z" fill="#FCE0EF"/><path d="M29.958 3.083H8.375A4.639 4.639 0 003.75 7.708v13.66l5.982-5.982a4.741 4.741 0 016.536 0l4.427 4.45 1.368-1.368a4.638 4.638 0 016.54 0l5.98 5.98V7.708a4.638 4.638 0 00-4.625-4.625zM21.48 13.875a2.313 2.313 0 110-4.625 2.313 2.313 0 010 4.625z" fill="#F899CC"/><path d="M16.268 15.386a4.741 4.741 0 00-6.536 0L3.75 21.368v7.924a4.639 4.639 0 004.625 4.625h21.583a4.623 4.623 0 003.33-1.419l-17.02-17.112z" fill="#ED017F"/><path d="M34.583 24.448l-5.98-5.98a4.638 4.638 0 00-6.54 0l-1.368 1.369 12.587 12.655a4.57 4.57 0 001.301-3.2v-4.844z" fill="#FCE0EF"/></svg>