<svg width="37" height="37" fill="none" xmlns="http://www.w3.org/2000/svg"><path d="M9.25 25.438a5.396 5.396 0 115.396-5.396 5.403 5.403 0 01-5.396 5.395z" fill="#F899CC"/><path d="M13.32 23.544a5.321 5.321 0 01-8.14 0 7.69 7.69 0 00-3.638 6.518 1.542 1.542 0 001.541 1.542h12.334a1.542 1.542 0 001.541-1.541 7.69 7.69 0 00-3.638-6.519zm14.43 1.893a5.396 5.396 0 115.396-5.395 5.403 5.403 0 01-5.396 5.395z" fill="#F467B2"/><path d="M31.82 23.544a5.321 5.321 0 01-8.14 0 7.691 7.691 0 00-3.638 6.518 1.542 1.542 0 001.541 1.542h12.334a1.542 1.542 0 001.541-1.541 7.69 7.69 0 00-3.637-6.519z" fill="#F13499"/><path d="M26.527 8.93l-3.083-3.082a1.541 1.541 0 00-2.18 2.18l.452.451h-6.432l.452-.452a1.541 1.541 0 00-2.18-2.18l-3.083 3.084a1.542 1.542 0 000 2.18l3.083 3.083a1.541 1.541 0 002.18-2.18l-.452-.451h6.432l-.452.451a1.541 1.541 0 002.18 2.18l3.084-3.083a1.544 1.544 0 000-2.18z" fill="#ED017F"/></svg>